<svg width="115" height="115" viewBox="0 0 115 115" fill="none" xmlns="http://www.w3.org/2000/svg">
<path d="M11.6278 42.5062L21.5384 39.2418L21.7907 44.871L11.6278 42.5062Z" fill="url(#paint0_linear_2_13)"/>
<path d="M12.1826 37.5139L22.5943 38.2027L20.718 43.5159L12.1826 37.5139Z" fill="url(#paint1_linear_2_13)"/>
<circle cx="44.3975" cy="68.5099" r="23.347" fill="url(#paint2_linear_2_13)"/>
<circle cx="44.3975" cy="68.5099" r="23.347" fill="url(#paint3_linear_2_13)"/>
<circle cx="44.3975" cy="45.163" r="23.347" fill="url(#paint4_linear_2_13)"/>
<path d="M28.9904 86.0877C32.7975 89.7788 37.2943 92.6838 42.224 94.637C47.1538 96.5902 52.42 97.5533 57.722 97.4712C63.024 97.3892 68.2579 96.2637 73.1249 94.1589C77.9919 92.0541 82.3967 89.0114 86.0877 85.2043C89.7788 81.3972 92.6838 76.9004 94.637 71.9706C96.5902 67.0408 97.5533 61.7746 97.4712 56.4726C97.3892 51.1707 96.2637 45.9368 94.1589 41.0698C92.0541 36.2028 89.0113 31.798 85.2043 28.1069L57.0973 57.0973L28.9904 86.0877Z" fill="url(#paint5_linear_2_13)"/>
<path d="M26.1156 111V102.273H29.7207C30.3741 102.273 30.938 102.391 31.4125 102.626C31.8897 102.859 32.2576 103.195 32.5162 103.632C32.7747 104.067 32.9039 104.582 32.9039 105.179C32.9039 105.784 32.7718 106.298 32.5076 106.722C32.2434 107.142 31.8684 107.463 31.3826 107.685C30.8968 107.903 30.3216 108.013 29.6568 108.013H27.377V106.351H29.2647C29.5829 106.351 29.8485 106.31 30.0616 106.227C30.2775 106.142 30.4409 106.014 30.5517 105.844C30.6625 105.67 30.7179 105.449 30.7179 105.179C30.7179 104.909 30.6625 104.686 30.5517 104.51C30.4409 104.331 30.2775 104.197 30.0616 104.109C29.8457 104.018 29.5801 103.973 29.2647 103.973H28.225V111H26.1156ZM31.0289 107.011L33.2022 111H30.9011L28.7704 107.011H31.0289ZM36.1703 102.273V111H34.0609V102.273H36.1703ZM42.2118 104.889C42.1834 104.577 42.057 104.334 41.8326 104.161C41.611 103.984 41.2942 103.896 40.8823 103.896C40.6096 103.896 40.3823 103.932 40.2005 104.003C40.0186 104.074 39.8823 104.172 39.7914 104.297C39.7005 104.419 39.6536 104.56 39.6507 104.719C39.6451 104.849 39.6706 104.964 39.7275 105.064C39.7871 105.163 39.8723 105.251 39.9831 105.328C40.0968 105.402 40.2331 105.467 40.3922 105.524C40.5513 105.581 40.7303 105.631 40.9292 105.673L41.6792 105.844C42.111 105.938 42.4917 106.062 42.8212 106.219C43.1536 106.375 43.432 106.561 43.6564 106.777C43.8837 106.993 44.0556 107.241 44.1721 107.523C44.2885 107.804 44.3482 108.119 44.351 108.469C44.3482 109.02 44.209 109.493 43.9334 109.888C43.6578 110.283 43.2615 110.585 42.7445 110.795C42.2303 111.006 41.6096 111.111 40.8823 111.111C40.1522 111.111 39.5158 111.001 38.9732 110.783C38.4306 110.564 38.0087 110.232 37.7076 109.786C37.4064 109.339 37.2516 108.776 37.2431 108.094H39.263C39.28 108.375 39.3553 108.609 39.4888 108.797C39.6223 108.984 39.8056 109.126 40.0385 109.223C40.2743 109.32 40.5471 109.368 40.8567 109.368C41.1408 109.368 41.3823 109.33 41.5811 109.253C41.7828 109.176 41.9377 109.07 42.0456 108.933C42.1536 108.797 42.209 108.641 42.2118 108.464C42.209 108.3 42.1578 108.159 42.0584 108.043C41.959 107.923 41.8056 107.821 41.5982 107.736C41.3936 107.648 41.1323 107.567 40.8141 107.493L39.9022 107.28C39.1465 107.107 38.5513 106.827 38.1167 106.44C37.682 106.051 37.4661 105.526 37.4689 104.864C37.4661 104.324 37.611 103.851 37.9036 103.445C38.1962 103.038 38.601 102.722 39.1181 102.494C39.6351 102.267 40.2246 102.153 40.8865 102.153C41.5627 102.153 42.1493 102.268 42.6465 102.499C43.1465 102.726 43.5343 103.045 43.8098 103.457C44.0854 103.869 44.226 104.347 44.2317 104.889H42.2118ZM45.4164 111V102.273H51.5016V103.986H47.5257V105.776H51.1905V107.493H47.5257V109.287H51.5016V111H45.4164ZM61.1962 112.389C60.2757 112.389 59.4547 112.264 58.7331 112.014C58.0115 111.767 57.4007 111.405 56.9007 110.928C56.4007 110.447 56.0201 109.865 55.7587 109.18C55.4973 108.496 55.3652 107.716 55.3624 106.841C55.3652 105.974 55.4973 105.186 55.7587 104.476C56.0229 103.763 56.4078 103.149 56.9135 102.635C57.4221 102.118 58.0442 101.719 58.78 101.438C59.5186 101.156 60.361 101.016 61.307 101.016C62.1706 101.016 62.9462 101.138 63.6337 101.382C64.3212 101.626 64.9064 101.979 65.3894 102.439C65.8752 102.899 66.2459 103.455 66.5016 104.105C66.7573 104.756 66.8837 105.49 66.8809 106.308C66.8837 106.868 66.8297 107.369 66.7189 107.812C66.6081 108.256 66.4391 108.635 66.2118 108.95C65.9874 109.266 65.7033 109.514 65.3596 109.696C65.0186 109.875 64.6167 109.982 64.1536 110.016C63.7786 110.047 63.4945 110.024 63.3013 109.947C63.1081 109.871 62.9718 109.76 62.8922 109.615C62.8127 109.467 62.7573 109.303 62.726 109.121H62.6749C62.6096 109.294 62.4661 109.449 62.2445 109.585C62.0257 109.719 61.7644 109.821 61.4604 109.892C61.1564 109.96 60.8439 109.984 60.5229 109.964C60.199 109.942 59.8837 109.865 59.5769 109.734C59.2701 109.601 58.9931 109.406 58.7459 109.151C58.5016 108.892 58.307 108.567 58.1621 108.175C58.0201 107.783 57.9476 107.321 57.9448 106.79C57.9476 106.259 58.0215 105.803 58.1664 105.422C58.3141 105.038 58.5059 104.72 58.7417 104.467C58.9803 104.212 59.2417 104.014 59.5257 103.875C59.8098 103.733 60.0882 103.641 60.361 103.598C60.6905 103.541 61.0087 103.537 61.3155 103.585C61.6223 103.634 61.8809 103.712 62.0911 103.82C62.3042 103.928 62.4363 104.044 62.4874 104.169H62.5513V103.692H64.0257V107.953C64.0314 108.138 64.0684 108.271 64.1365 108.354C64.2047 108.436 64.2928 108.477 64.4007 108.477C64.5655 108.477 64.7104 108.396 64.8354 108.234C64.9632 108.07 65.0613 107.818 65.1294 107.48C65.2005 107.139 65.2346 106.706 65.2317 106.18C65.2346 105.595 65.1578 105.095 65.0016 104.68C64.8482 104.263 64.6394 103.918 64.3752 103.645C64.111 103.372 63.8098 103.159 63.4718 103.006C63.1365 102.849 62.7814 102.74 62.4064 102.678C62.0314 102.615 61.6621 102.584 61.2985 102.584C60.574 102.584 59.9476 102.693 59.4192 102.912C58.8908 103.128 58.4533 103.428 58.1067 103.811C57.7601 104.195 57.5016 104.639 57.3311 105.145C57.1635 105.648 57.0783 106.187 57.0755 106.764C57.0783 107.42 57.1721 108.001 57.3567 108.507C57.5414 109.01 57.8127 109.432 58.1706 109.773C58.5286 110.114 58.9703 110.372 59.4959 110.548C60.0243 110.722 60.6294 110.808 61.3113 110.808C61.6436 110.808 61.9675 110.787 62.2828 110.744C62.5982 110.702 62.8851 110.648 63.1436 110.582C63.405 110.517 63.6195 110.449 63.7871 110.378L64.2729 111.763C64.0939 111.874 63.8468 111.976 63.5314 112.07C63.2189 112.166 62.861 112.243 62.4576 112.3C62.057 112.359 61.6365 112.389 61.1962 112.389ZM61.0939 108.384C61.432 108.384 61.699 108.321 61.8951 108.196C62.0911 108.068 62.2303 107.881 62.3127 107.634C62.3951 107.386 62.432 107.084 62.4235 106.726C62.4235 106.43 62.3865 106.169 62.3127 105.942C62.2388 105.714 62.1053 105.536 61.9121 105.405C61.7189 105.274 61.4405 105.209 61.0769 105.209C60.7644 105.209 60.4988 105.27 60.28 105.392C60.0641 105.514 59.8979 105.689 59.7814 105.916C59.6678 106.143 59.611 106.418 59.611 106.739C59.611 107.02 59.6578 107.287 59.7516 107.54C59.8453 107.79 60.0002 107.993 60.2161 108.149C60.432 108.305 60.7246 108.384 61.0939 108.384ZM75.4462 104.889C75.4178 104.577 75.2914 104.334 75.0669 104.161C74.8453 103.984 74.5286 103.896 74.1167 103.896C73.8439 103.896 73.6167 103.932 73.4348 104.003C73.253 104.074 73.1167 104.172 73.0257 104.297C72.9348 104.419 72.888 104.56 72.8851 104.719C72.8794 104.849 72.905 104.964 72.9618 105.064C73.0215 105.163 73.1067 105.251 73.2175 105.328C73.3311 105.402 73.4675 105.467 73.6266 105.524C73.7857 105.581 73.9647 105.631 74.1635 105.673L74.9135 105.844C75.3453 105.938 75.726 106.062 76.0556 106.219C76.388 106.375 76.6664 106.561 76.8908 106.777C77.1181 106.993 77.29 107.241 77.4064 107.523C77.5229 107.804 77.5826 108.119 77.5854 108.469C77.5826 109.02 77.4434 109.493 77.1678 109.888C76.8922 110.283 76.4959 110.585 75.9789 110.795C75.4647 111.006 74.8439 111.111 74.1167 111.111C73.3865 111.111 72.7502 111.001 72.2076 110.783C71.665 110.564 71.2431 110.232 70.9419 109.786C70.6408 109.339 70.486 108.776 70.4775 108.094H72.4973C72.5144 108.375 72.5897 108.609 72.7232 108.797C72.8567 108.984 73.04 109.126 73.2729 109.223C73.5087 109.32 73.7814 109.368 74.0911 109.368C74.3752 109.368 74.6167 109.33 74.8155 109.253C75.0172 109.176 75.1721 109.07 75.28 108.933C75.388 108.797 75.4434 108.641 75.4462 108.464C75.4434 108.3 75.3922 108.159 75.2928 108.043C75.1934 107.923 75.04 107.821 74.8326 107.736C74.628 107.648 74.3667 107.567 74.0485 107.493L73.1365 107.28C72.3809 107.107 71.7857 106.827 71.351 106.44C70.9164 106.051 70.7005 105.526 70.7033 104.864C70.7005 104.324 70.8453 103.851 71.138 103.445C71.4306 103.038 71.8354 102.722 72.3525 102.494C72.8695 102.267 73.459 102.153 74.1209 102.153C74.7971 102.153 75.3837 102.268 75.8809 102.499C76.3809 102.726 76.7686 103.045 77.0442 103.457C77.3198 103.869 77.4604 104.347 77.4661 104.889H75.4462ZM80.7601 102.273V111H78.6507V102.273H80.7601ZM81.7988 103.986V102.273H89.1752V103.986H86.5289V111H84.4494V103.986H81.7988Z" fill="url(#paint6_linear_2_13)"/>
<defs>
<linearGradient id="paint0_linear_2_13" x1="18.1733" y1="38.9563" x2="18.4646" y2="45.4563" gradientUnits="userSpaceOnUse">
<stop stop-color="#FFE688"/>
<stop offset="1" stop-color="#FD8C9C"/>
</linearGradient>
<linearGradient id="paint1_linear_2_13" x1="19.5816" y1="36.6766" x2="17.415" y2="42.8118" gradientUnits="userSpaceOnUse">
<stop stop-color="#FFE688"/>
<stop offset="1" stop-color="#FD8C9C"/>
</linearGradient>
<linearGradient id="paint2_linear_2_13" x1="35.5945" y1="48.2248" x2="57.4105" y2="86.1158" gradientUnits="userSpaceOnUse">
<stop stop-color="#FD8C9B"/>
<stop offset="1" stop-color="#FFF584"/>
</linearGradient>
<linearGradient id="paint3_linear_2_13" x1="35.5945" y1="48.2248" x2="57.4105" y2="86.1158" gradientUnits="userSpaceOnUse">
<stop stop-color="#FD8C9B"/>
<stop offset="1" stop-color="#FFF584"/>
</linearGradient>
<linearGradient id="paint4_linear_2_13" x1="35.5945" y1="24.8779" x2="57.4105" y2="62.7689" gradientUnits="userSpaceOnUse">
<stop stop-color="#FD8C9B"/>
<stop offset="1" stop-color="#FFF584"/>
</linearGradient>
<linearGradient id="paint5_linear_2_13" x1="92.8834" y1="70.5873" x2="19.5696" y2="52.0605" gradientUnits="userSpaceOnUse">
<stop stop-color="#FD8C9B"/>
<stop offset="1" stop-color="#FFF584"/>
</linearGradient>
<linearGradient id="paint6_linear_2_13" x1="25" y1="106.5" x2="90" y2="106.5" gradientUnits="userSpaceOnUse">
<stop stop-color="#5A3439"/>
<stop offset="1" stop-color="#544302"/>
</linearGradient>
</defs>
</svg>
